<mxfile host="app.diagrams.net" modified="2023-12-21T04:34:49.335Z" agent="Mozilla/5.0 (Windows NT 10.0; Win64; x64) AppleWebKit/537.36 (KHTML, like Gecko) Chrome/120.0.0.0 Safari/537.36" etag="M6059Z3x5vIM7oVJZMxK" version="22.1.11" type="device">
  <diagram name="Page-1" id="ZboFt8t4f_BluMh-vgOY">
    <mxGraphModel dx="1034" dy="412" grid="1" gridSize="10" guides="1" tooltips="1" connect="1" arrows="1" fold="1" page="1" pageScale="1" pageWidth="1169" pageHeight="827" math="0" shadow="0">
      <root>
        <mxCell id="0" />
        <mxCell id="1" parent="0" />
        <mxCell id="mYjCB3t4OeWbaRZHp2YJ-12" style="edgeStyle=none;rounded=0;orthogonalLoop=1;jettySize=auto;html=1;exitX=1;exitY=1;exitDx=0;exitDy=0;entryX=0;entryY=0.5;entryDx=0;entryDy=0;" edge="1" parent="1" source="eMShrDxvfmjw5YcZRz0T-1" target="eMShrDxvfmjw5YcZRz0T-6">
          <mxGeometry relative="1" as="geometry" />
        </mxCell>
        <mxCell id="mYjCB3t4OeWbaRZHp2YJ-13" style="edgeStyle=none;rounded=0;orthogonalLoop=1;jettySize=auto;html=1;exitX=1;exitY=0.5;exitDx=0;exitDy=0;entryX=0;entryY=0.5;entryDx=0;entryDy=0;" edge="1" parent="1" source="eMShrDxvfmjw5YcZRz0T-1" target="eMShrDxvfmjw5YcZRz0T-7">
          <mxGeometry relative="1" as="geometry" />
        </mxCell>
        <mxCell id="mYjCB3t4OeWbaRZHp2YJ-14" style="edgeStyle=none;rounded=0;orthogonalLoop=1;jettySize=auto;html=1;exitX=1;exitY=0;exitDx=0;exitDy=0;entryX=0;entryY=0.75;entryDx=0;entryDy=0;" edge="1" parent="1" source="eMShrDxvfmjw5YcZRz0T-1" target="eMShrDxvfmjw5YcZRz0T-4">
          <mxGeometry relative="1" as="geometry" />
        </mxCell>
        <mxCell id="eMShrDxvfmjw5YcZRz0T-1" value="&lt;b&gt;&lt;font style=&quot;font-size: 28px;&quot; face=&quot;Verdana&quot;&gt;77 LIBRARY (MANAGEMENT SYSTEM)&lt;/font&gt;&lt;/b&gt;" style="ellipse;whiteSpace=wrap;html=1;fontSize=16;" parent="1" vertex="1">
          <mxGeometry x="350" y="270" width="440" height="230" as="geometry" />
        </mxCell>
        <mxCell id="mYjCB3t4OeWbaRZHp2YJ-4" style="rounded=0;orthogonalLoop=1;jettySize=auto;html=1;exitX=1;exitY=1;exitDx=0;exitDy=0;entryX=0.205;entryY=0.084;entryDx=0;entryDy=0;entryPerimeter=0;" edge="1" parent="1" source="eMShrDxvfmjw5YcZRz0T-2" target="eMShrDxvfmjw5YcZRz0T-1">
          <mxGeometry relative="1" as="geometry">
            <mxPoint x="370" y="240" as="targetPoint" />
          </mxGeometry>
        </mxCell>
        <mxCell id="mYjCB3t4OeWbaRZHp2YJ-5" style="edgeStyle=orthogonalEdgeStyle;rounded=0;orthogonalLoop=1;jettySize=auto;html=1;exitX=0.5;exitY=1;exitDx=0;exitDy=0;entryX=0.5;entryY=0;entryDx=0;entryDy=0;" edge="1" parent="1" source="eMShrDxvfmjw5YcZRz0T-2" target="eMShrDxvfmjw5YcZRz0T-5">
          <mxGeometry relative="1" as="geometry" />
        </mxCell>
        <mxCell id="eMShrDxvfmjw5YcZRz0T-2" value="MEMBERS" style="rounded=1;whiteSpace=wrap;html=1;fontSize=16;" parent="1" vertex="1">
          <mxGeometry x="130" y="90" width="120" height="60" as="geometry" />
        </mxCell>
        <mxCell id="mYjCB3t4OeWbaRZHp2YJ-8" style="edgeStyle=none;rounded=0;orthogonalLoop=1;jettySize=auto;html=1;exitX=1;exitY=0;exitDx=0;exitDy=0;entryX=0;entryY=1;entryDx=0;entryDy=0;" edge="1" parent="1" source="eMShrDxvfmjw5YcZRz0T-3" target="eMShrDxvfmjw5YcZRz0T-1">
          <mxGeometry relative="1" as="geometry" />
        </mxCell>
        <mxCell id="eMShrDxvfmjw5YcZRz0T-3" value="LIBRARIAN" style="rounded=1;whiteSpace=wrap;html=1;fontSize=16;" parent="1" vertex="1">
          <mxGeometry x="80" y="570" width="120" height="60" as="geometry" />
        </mxCell>
        <mxCell id="eMShrDxvfmjw5YcZRz0T-4" value="BOOKS" style="rounded=1;whiteSpace=wrap;html=1;fontSize=16;" parent="1" vertex="1">
          <mxGeometry x="1030" y="80" width="120" height="60" as="geometry" />
        </mxCell>
        <mxCell id="eMShrDxvfmjw5YcZRz0T-5" value="LOGIN" style="rounded=1;whiteSpace=wrap;html=1;fontSize=16;" parent="1" vertex="1">
          <mxGeometry x="130" y="310" width="120" height="60" as="geometry" />
        </mxCell>
        <mxCell id="eMShrDxvfmjw5YcZRz0T-6" value="REPORTING" style="rounded=1;whiteSpace=wrap;html=1;fontSize=16;" parent="1" vertex="1">
          <mxGeometry x="1030" y="540" width="120" height="60" as="geometry" />
        </mxCell>
        <mxCell id="eMShrDxvfmjw5YcZRz0T-7" value="FINE SYSTEM (DUE DATE MANAGEMENT)" style="rounded=1;whiteSpace=wrap;html=1;fontSize=16;" parent="1" vertex="1">
          <mxGeometry x="1010" y="300" width="140" height="80" as="geometry" />
        </mxCell>
        <mxCell id="eMShrDxvfmjw5YcZRz0T-9" value="Search for book(s)" style="text;html=1;align=center;verticalAlign=middle;resizable=0;points=[];autosize=1;strokeColor=none;fillColor=none;fontSize=16;rotation=0;" parent="1" vertex="1">
          <mxGeometry x="310" y="150" width="160" height="30" as="geometry" />
        </mxCell>
        <mxCell id="eMShrDxvfmjw5YcZRz0T-12" value="Members login" style="text;html=1;align=center;verticalAlign=middle;resizable=0;points=[];autosize=1;strokeColor=none;fillColor=none;fontSize=16;" parent="1" vertex="1">
          <mxGeometry x="20" y="210" width="130" height="30" as="geometry" />
        </mxCell>
        <mxCell id="eMShrDxvfmjw5YcZRz0T-15" value="Admin login" style="text;html=1;align=center;verticalAlign=middle;resizable=0;points=[];autosize=1;strokeColor=none;fillColor=none;fontSize=16;" parent="1" vertex="1">
          <mxGeometry x="30" y="440" width="110" height="30" as="geometry" />
        </mxCell>
        <mxCell id="eMShrDxvfmjw5YcZRz0T-18" value="Member Management" style="text;html=1;align=center;verticalAlign=middle;resizable=0;points=[];autosize=1;strokeColor=none;fillColor=none;fontSize=16;" parent="1" vertex="1">
          <mxGeometry x="160" y="470" width="180" height="30" as="geometry" />
        </mxCell>
        <mxCell id="eMShrDxvfmjw5YcZRz0T-21" value="Book Management" style="text;html=1;align=center;verticalAlign=middle;resizable=0;points=[];autosize=1;strokeColor=none;fillColor=none;fontSize=16;" parent="1" vertex="1">
          <mxGeometry x="350" y="555" width="160" height="30" as="geometry" />
        </mxCell>
        <mxCell id="eMShrDxvfmjw5YcZRz0T-24" value="Issue/Return Book" style="text;html=1;align=center;verticalAlign=middle;resizable=0;points=[];autosize=1;strokeColor=none;fillColor=none;fontSize=16;" parent="1" vertex="1">
          <mxGeometry x="340" y="610" width="160" height="30" as="geometry" />
        </mxCell>
        <mxCell id="eMShrDxvfmjw5YcZRz0T-27" value="Member receive book" style="text;html=1;align=center;verticalAlign=middle;resizable=0;points=[];autosize=1;strokeColor=none;fillColor=none;fontSize=16;" parent="1" vertex="1">
          <mxGeometry x="760" y="140" width="180" height="30" as="geometry" />
        </mxCell>
        <mxCell id="eMShrDxvfmjw5YcZRz0T-30" value="Display borrowing history" style="text;html=1;align=center;verticalAlign=middle;resizable=0;points=[];autosize=1;strokeColor=none;fillColor=none;fontSize=16;" parent="1" vertex="1">
          <mxGeometry x="790" y="310" width="200" height="30" as="geometry" />
        </mxCell>
        <mxCell id="eMShrDxvfmjw5YcZRz0T-35" value="Display" style="text;html=1;align=center;verticalAlign=middle;resizable=0;points=[];autosize=1;strokeColor=none;fillColor=none;fontSize=16;" parent="1" vertex="1">
          <mxGeometry x="870" y="480" width="80" height="30" as="geometry" />
        </mxCell>
        <mxCell id="mYjCB3t4OeWbaRZHp2YJ-6" style="edgeStyle=orthogonalEdgeStyle;rounded=0;orthogonalLoop=1;jettySize=auto;html=1;exitX=0.5;exitY=0;exitDx=0;exitDy=0;entryX=0.078;entryY=1.011;entryDx=0;entryDy=0;entryPerimeter=0;" edge="1" parent="1" source="eMShrDxvfmjw5YcZRz0T-3" target="eMShrDxvfmjw5YcZRz0T-5">
          <mxGeometry relative="1" as="geometry" />
        </mxCell>
        <mxCell id="mYjCB3t4OeWbaRZHp2YJ-9" style="edgeStyle=none;rounded=0;orthogonalLoop=1;jettySize=auto;html=1;exitX=1;exitY=0.5;exitDx=0;exitDy=0;entryX=0.348;entryY=0.997;entryDx=0;entryDy=0;entryPerimeter=0;" edge="1" parent="1" source="eMShrDxvfmjw5YcZRz0T-3" target="eMShrDxvfmjw5YcZRz0T-1">
          <mxGeometry relative="1" as="geometry" />
        </mxCell>
        <mxCell id="mYjCB3t4OeWbaRZHp2YJ-11" style="edgeStyle=orthogonalEdgeStyle;rounded=0;orthogonalLoop=1;jettySize=auto;html=1;exitX=1;exitY=1;exitDx=0;exitDy=0;entryX=0.57;entryY=1.006;entryDx=0;entryDy=0;entryPerimeter=0;" edge="1" parent="1" source="eMShrDxvfmjw5YcZRz0T-3" target="eMShrDxvfmjw5YcZRz0T-1">
          <mxGeometry relative="1" as="geometry" />
        </mxCell>
      </root>
    </mxGraphModel>
  </diagram>
</mxfile>
